# Blender 5.1.1
# www.blender.org
mtllib map.mtl
o Map
v -2.930321 -0.000000 -1.769127
v -3.017495 0.289760 1.769127
v -1.926049 -0.000000 -1.769127
v -1.926049 0.062814 1.769127
v -0.642016 -0.000000 -1.769127
v -0.737848 0.000000 1.769127
v 0.642016 -0.000000 -1.769127
v 0.546184 0.159575 1.769127
v 1.926049 -0.000000 -1.769127
v 1.830216 0.000000 1.769127
v 3.210081 -0.000000 -1.769127
v 2.929146 0.000000 1.769127
v 0.546184 0.000000 0.689747
v -2.813109 0.000000 1.769127
v -3.210080 0.000000 0.868634
v 2.379704 0.104804 1.769127
v 2.997031 0.000000 0.914144
v 2.759737 0.151214 1.769127
v 2.946194 0.151214 1.554407
v -3.034674 0.124357 1.769127
v -3.210081 0.031482 1.061139
v -1.926049 0.000000 1.284671
v -3.785622 0.299388 -1.149653
v -2.002708 0.299388 0.633262
v -3.785622 0.721661 -1.149653
v -2.002708 0.721661 0.633262
v -2.443899 0.721661 -2.491376
v -0.660984 0.721661 -0.708461
v -2.443899 0.299388 -2.491376
v -0.660984 0.299388 -0.708461
v -2.443899 0.658320 -2.491376
v -2.443899 0.362729 -2.491376
v -1.962457 0.658320 0.593010
v -1.962457 0.362729 0.593010
v -3.745370 0.362729 -1.189904
v -3.745370 0.658320 -1.189904
v -2.007030 0.658320 0.548438
v -2.007030 0.362729 0.548438
v -3.700797 0.362729 -1.145332
v -3.700797 0.658320 -1.145332
v -0.754033 0.658320 -0.704557
v -0.754033 0.362729 -0.704557
v -2.447802 0.362729 -2.398327
v -2.447802 0.658320 -2.398327
v -0.660984 0.658320 -0.708461
v -0.660984 0.658320 -0.708461
v -0.660984 0.658320 -0.708461
v -0.660984 0.362729 -0.708461
v -0.660984 0.362729 -0.708461
v -0.660984 0.362729 -0.708461
v -1.962457 0.658320 0.593010
v -1.962457 0.658320 0.593010
v -1.962457 0.658320 0.593010
v -1.962457 0.362729 0.593010
v -1.962457 0.362729 0.593010
v -1.962457 0.362729 0.593010
v -1.962457 0.658320 0.593010
v -1.962457 0.362729 0.593010
v -1.962457 0.362729 0.593010
v -1.962457 0.658320 0.593010
v -3.564452 0.000886 -1.646118
v -2.303741 0.000886 0.537499
v -3.564452 0.300274 -1.646118
v -2.303741 0.300274 0.537499
v -1.921183 0.300273 -2.594860
v -0.660471 0.300274 -0.411243
v -1.921183 0.000886 -2.594860
v -0.660471 0.000886 -0.411243
v -1.921183 0.255365 -2.594860
v -0.660471 0.255365 -0.411243
v -0.660471 0.045794 -0.411243
v -1.921183 0.045794 -2.594860
v -2.254443 0.255366 0.509037
v -2.254443 0.045794 0.509037
v -3.515155 0.045794 -1.674580
v -3.515155 0.255365 -1.674580
v -2.275454 0.255366 0.472644
v -2.275454 0.045794 0.472644
v -3.494143 0.045794 -1.638187
v -3.494143 0.255365 -1.638187
v -0.740854 0.255365 -0.413359
v -0.740854 0.045794 -0.413359
v -1.959543 0.045794 -2.524189
v -1.959543 0.255365 -2.524189
vn 0.7039 0.6656 -0.2480
vn 0.4631 0.8609 -0.2108
vn 0.9687 -0.1006 -0.2268
vn -0.0063 0.9999 -0.0100
vn -0.0000 1.0000 -0.0000
vn 0.0033 1.0000 -0.0092
vn -0.0000 1.0000 -0.0096
vn 0.0042 0.9999 -0.0149
vn -0.0040 1.0000 -0.0054
vn -0.1754 0.9552 -0.2383
vn -0.0000 0.9892 -0.1462
vn 0.0023 1.0000 -0.0028
vn 0.0191 0.9958 -0.0897
vn 0.0154 0.9998 -0.0091
vn -0.1236 0.9757 -0.1810
vn -0.1329 0.9728 -0.1896
vn 0.5765 0.6458 0.5006
vn -0.7071 -0.0000 0.7071
vn -0.0000 -1.0000 -0.0000
vn 0.7071 -0.0000 -0.7071
vn 0.7071 -0.0000 0.7071
vn -0.7071 -0.0000 -0.7071
vn -0.0000 -0.0000 1.0000
vn -0.8660 -0.0000 0.5000
vn 0.8660 -0.0000 -0.5000
vn 0.5000 -0.0000 0.8660
vn -0.5000 -0.0000 -0.8660
vt 0.402855 0.832522
vt 0.386305 0.905398
vt 0.386305 0.825218
vt 0.001160 0.430515
vt 0.386305 0.420232
vt 0.386305 0.560309
vt 0.053894 0.560162
vt 0.118653 0.290490
vt 0.386305 0.280155
vt 0.001160 0.150360
vt 0.386305 0.140077
vt 0.094227 0.023112
vt 0.000398 0.090492
vt -0.000000 0.290554
vt 0.386305 0.669867
vt 0.099181 0.700259
vt 0.000704 0.560184
vt 0.001160 0.656909
vt 0.000061 0.049067
vt 0.023434 0.028736
vt 0.386305 -0.000000
vt 0.423050 0.847938
vt 0.402855 0.825218
vt 0.424926 0.825218
vt 0.077997 0.700273
vt 0.000256 0.681170
vt 0.800155 0.275281
vt 0.846223 0.275281
vt 0.846223 0.548000
vt 0.800155 0.548000
vt 0.593310 0.000456
vt 0.800035 0.000000
vt 0.800035 0.274825
vt 0.593310 0.275281
vt 0.593309 0.550145
vt 0.386305 0.550145
vt 0.386305 0.275073
vt 0.593309 0.275073
vt 0.376066 0.971438
vt 0.376066 0.700273
vt 0.382976 0.700284
vt 0.382976 0.971449
vt 0.993881 0.480514
vt 0.986971 0.480514
vt 0.986971 0.275281
vt 0.993881 0.281438
vt 0.892290 0.480514
vt 0.885380 0.480514
vt 0.885380 0.281437
vt 0.892290 0.275281
vt 1.000000 0.205233
vt 0.993090 0.205234
vt 0.993090 0.006157
vt 1.000000 0.000000
vt 0.980061 0.546446
vt 0.980061 0.275281
vt 0.986971 0.275291
vt 0.986971 0.546457
vt 0.853133 0.480514
vt 0.846223 0.480514
vt 0.846223 0.275281
vt 0.853133 0.281437
vt 0.852380 0.487424
vt 0.852380 0.519671
vt 0.846223 0.526582
vt 0.846223 0.480514
vt 0.386305 0.550145
vt -0.000000 0.700715
vt 0.200524 0.700273
vt 0.200524 0.975097
vt 0.000000 0.975539
vt 0.593310 0.550387
vt 0.794104 0.550387
vt 0.794104 0.825459
vt 0.593310 0.825459
vt 0.924952 0.275281
vt 0.957198 0.275332
vt 0.957198 0.532939
vt 0.924952 0.532888
vt 0.424926 0.857475
vt 0.424926 0.825229
vt 0.431705 0.825218
vt 0.431705 0.857464
vt 0.438484 0.825218
vt 0.438484 0.857464
vt 0.431705 0.857475
vt 0.431705 0.825229
vt 0.298094 0.700273
vt 0.330341 0.700273
vt 0.330341 0.891934
vt 0.298094 0.891934
vt 0.265847 0.700273
vt 0.298094 0.700273
vt 0.298094 0.891934
vt 0.265847 0.891934
vt 0.800035 0.261509
vt 0.800035 0.000426
vt 0.993090 -0.000000
vt 0.993090 0.261084
vt 0.892290 0.275281
vt 0.924952 0.275281
vt 0.924952 0.548000
vt 0.892290 0.548000
vt 0.593310 0.275721
vt 0.800155 0.275281
vt 0.800155 0.549946
vt 0.593309 0.550387
vt 0.593309 0.275073
vt 0.386305 0.275073
vt 0.386305 0.000000
vt 0.593309 0.000000
vt 0.587099 0.824032
vt 0.587099 0.550150
vt 0.591998 0.550145
vt 0.591998 0.824028
vt 0.238084 0.905506
vt 0.233185 0.905506
vt 0.233185 0.700273
vt 0.238084 0.706430
vt 0.233185 0.905506
vt 0.228286 0.905506
vt 0.228286 0.706430
vt 0.233185 0.700273
vt 0.265847 0.905506
vt 0.260947 0.905506
vt 0.260947 0.706430
vt 0.265847 0.700273
vt 0.993881 0.549168
vt 0.993881 0.275285
vt 0.998780 0.275281
vt 0.998780 0.549163
vt 0.205423 0.905506
vt 0.200524 0.905506
vt 0.200524 0.700273
vt 0.205423 0.706430
vt 0.794104 0.550815
vt 0.994744 0.550387
vt 0.994744 0.825052
vt 0.794104 0.825480
vt 0.386305 0.550145
vt 0.587099 0.550145
vt 0.587099 0.825218
vt 0.386305 0.825218
vt 0.330341 0.700292
vt 0.353203 0.700273
vt 0.353203 0.965026
vt 0.330341 0.965046
vt 0.587099 0.846894
vt 0.591664 0.824036
vt 0.591664 0.846898
vt 0.443049 0.825222
vt 0.443049 0.848084
vt 0.438484 0.848080
vt 0.438484 0.825218
vt 0.957198 0.275281
vt 0.980061 0.275281
vt 0.980061 0.466942
vt 0.957198 0.466942
vt 0.353203 0.700273
vt 0.376066 0.700273
vt 0.376066 0.891934
vt 0.353203 0.891934
s 1
usemtl M_Beauty_Shot_Props
f 20/1/1 21/2/2 2/3/3
f 6/4/4 5/5/5 3/6/5 22/7/6
f 5/5/5 6/4/4 13/8/7 7/9/5
f 7/9/5 13/8/7 10/10/8 9/11/5
f 17/12/9 10/10/8 16/13/10
f 13/8/7 6/4/4 8/14/11
f 10/10/8 13/8/7 8/14/11
f 1/15/5 15/16/12 22/7/6 3/6/5
f 4/17/13 15/16/12 14/18/14
f 17/12/9 16/13/10 18/19/15 19/20/16
f 9/11/5 10/10/8 17/12/9 11/21/5
f 19/22/16 18/23/15 12/24/17
f 14/18/14 15/16/12 21/25/2 20/26/1
f 22/7/6 15/16/12 4/17/13
f 6/4/4 22/7/6 4/17/13
f 24/27/18 26/28/18 25/29/18 23/30/18
f 26/31/5 28/32/5 27/33/5 25/34/5
f 23/35/19 29/36/19 30/37/19 24/38/19
f 27/39/20 28/40/20 47/41/20 31/42/20
f 46/43/21 28/44/21 26/45/21 53/46/21
f 27/47/22 31/48/22 36/49/22 25/50/22
f 30/51/21 49/52/21 56/53/21 24/54/21
f 32/55/20 50/56/20 30/57/20 29/58/20
f 32/59/22 29/60/22 23/61/22 35/62/22
f 55/63/21 52/64/21 26/65/21 24/66/21
f 25/50/22 36/49/22 35/62/22 23/61/22
f 57/67/23 58/67/23 59/67/23 60/67/23
f 54/68/5 48/69/5 32/70/5 35/71/5
f 45/72/19 51/73/19 36/74/19 31/75/19
f 41/76/20 42/77/20 43/78/20 44/79/20
f 33/80/20 34/81/20 38/82/20 37/83/20
f 35/84/20 36/85/20 40/86/20 39/87/20
f 37/88/21 38/89/21 42/90/21 41/91/21
f 39/92/22 40/93/22 44/94/22 43/95/22
f 40/96/5 37/97/5 41/98/5 44/99/5
f 62/100/24 64/101/24 63/102/24 61/103/24
f 64/104/5 66/105/5 65/106/5 63/107/5
f 61/108/19 67/109/19 68/110/19 62/111/19
f 65/112/25 66/113/25 70/114/25 69/115/25
f 70/116/26 66/117/26 64/118/26 73/119/26
f 65/120/27 69/121/27 76/122/27 63/123/27
f 68/124/26 71/125/26 74/126/26 62/127/26
f 72/128/25 71/129/25 68/130/25 67/131/25
f 72/132/27 67/133/27 61/134/27 75/135/27
f 74/126/26 73/119/26 64/118/26 62/127/26
f 63/123/27 76/122/27 75/135/27 61/134/27
f 74/136/5 71/137/5 72/138/5 75/139/5
f 70/140/19 73/141/19 76/142/19 69/143/19
f 81/144/25 82/145/25 83/146/25 84/147/25
f 73/148/25 74/112/25 78/149/25 77/150/25
f 75/151/25 76/152/25 80/153/25 79/154/25
f 77/155/26 78/156/26 82/157/26 81/158/26
f 79/159/27 80/160/27 84/161/27 83/162/27
