# Blender 5.1.1
# www.blender.org
mtllib painting.mtl
o cadre_lowpoly
v -0.011701 -4.087090 -4.975775
v 0.039965 4.128563 -4.944384
v 0.476507 -3.798482 -4.691971
v 0.479685 3.871535 -4.688814
v 0.511919 -3.835931 4.539696
v 0.477639 3.807894 4.619135
v 0.033153 -4.126080 4.838397
v -0.026822 4.109164 4.874168
v 0.207591 -4.057581 -4.969442
v 0.201738 4.126798 -4.947000
v 0.204473 4.095401 4.862303
v 0.201367 -4.114074 4.869997
v 0.339919 3.963533 4.730804
v 0.342516 4.023564 -4.824447
v 0.360306 -3.922258 -4.833865
v 0.401807 -3.962174 4.695018
v 0.275766 -3.019798 -3.932676
v 0.263292 3.108931 -3.874916
v 0.274643 -3.081340 3.822245
v 0.264916 3.085375 3.839568
v 0.280682 -3.530874 -4.430349
v 0.308274 -3.617806 4.360894
v 0.280150 3.572128 4.359803
v 0.282242 3.616512 -4.438524
v 0.339014 3.690706 4.469973
v 0.352608 3.727833 -4.565405
v 0.346498 -3.634080 -4.562887
v 0.427792 -3.734190 4.473814
v 0.382871 3.386798 -4.206574
v 0.409213 3.271634 -4.078050
v 0.395844 3.223492 3.998513
v 0.358754 3.361817 4.155046
v 0.408844 -3.202431 3.923470
v 0.387709 -3.388213 4.107984
v 0.400119 -3.207508 -4.099077
v 0.369407 -3.309434 -4.236645
vn 0.8420 0.4249 -0.3324
vn 0.7386 0.0012 -0.6742
vn 0.6844 0.0021 -0.7291
vn 0.7959 0.4747 -0.3757
vn 0.8457 0.4151 0.3354
vn 0.8081 -0.4815 0.3392
vn 0.8452 -0.4072 0.3461
vn 0.8591 0.3613 0.3624
vn 0.7329 -0.0005 0.6803
vn 0.6879 0.0008 0.7258
vn 0.6903 0.0007 0.7235
vn 0.7455 0.6665 0.0046
vn 0.6842 0.7293 0.0039
vn 0.7412 -0.6712 -0.0058
vn 0.6555 -0.7552 -0.0052
vn 0.6569 -0.7540 -0.0052
vn 0.2645 0.0031 -0.9644
vn 0.3812 0.6984 -0.6057
vn 0.2668 0.9638 0.0032
vn 0.2567 -0.0007 0.9665
vn 0.2724 -0.0007 0.9622
vn 0.3534 -0.9355 -0.0052
vn 0.3383 -0.9410 -0.0052
vn 0.0095 0.0033 -0.9999
vn 0.0396 0.9992 0.0027
vn -0.0493 -0.0019 0.9988
vn 0.1070 -0.9942 -0.0050
vn 0.8089 -0.4537 -0.3738
vn 0.8326 -0.4512 -0.3212
vn 0.9993 -0.0301 0.0226
vn 0.9993 -0.0294 -0.0229
vn 0.9993 0.0289 -0.0232
vn 0.9993 0.0296 0.0247
vn 0.8413 0.4579 -0.2872
vn 0.8469 0.3931 -0.3581
vn 0.9733 0.1832 -0.1382
vn 0.9808 0.1793 0.0770
vn 0.9669 -0.1804 -0.1807
vn 0.9743 -0.1817 0.1334
vn 0.9848 -0.0892 -0.1493
vn 0.9699 0.1955 0.1452
vn 0.9923 -0.0982 0.0758
vn 0.9637 0.2048 -0.1715
vn 0.9971 -0.0410 0.0636
vn 0.9973 0.0601 0.0419
vn 0.9975 -0.0471 -0.0528
vn 0.9958 0.0791 -0.0466
vt 0.946411 0.051737
vt 0.061800 0.051432
vt 0.044668 0.035183
vt 0.965814 0.037580
vt 0.929832 0.063661
vt 0.080755 0.063904
vt 0.057482 0.943713
vt 0.939071 0.951390
vt 0.962260 0.965530
vt 0.036332 0.964067
vt 0.025688 0.024604
vt 0.975839 0.026773
vt 0.972218 0.974884
vt 0.025389 0.975627
vt 0.025166 0.000036
vt 0.975945 0.000142
vt 0.999840 0.026570
vt 0.999641 0.973791
vt 0.972488 0.999495
vt 0.024889 0.999861
vt 0.000995 0.975605
vt 0.000249 0.025016
vt 0.925549 0.936968
vt 0.861402 0.124053
vt 0.857889 0.878913
vt 0.144861 0.876519
vt 0.148570 0.121936
vt 0.069213 0.937342
vt 0.082630 0.926424
vt 0.092656 0.076712
vt 0.118199 0.095438
vt 0.109114 0.901982
vt 0.911870 0.926318
vt 0.887618 0.906530
vt 0.916989 0.075922
vt 0.890500 0.098345
vt 0.875477 0.111639
vt 0.129956 0.108735
vt 0.872537 0.891837
vt 0.131413 0.885455
s 1
usemtl blinn2
f 4/1/1 3/2/2 15/3/3 14/4/4
f 3/2/5 4/1/6 26/5/7 27/6/8
f 5/7/9 6/8/9 13/9/10 16/10/11
f 6/8/12 4/1/1 14/4/4 13/9/13
f 3/2/14 5/7/14 16/10/15 15/3/16
f 9/11/17 10/12/18 14/4/4 15/3/3
f 10/12/18 11/13/19 13/9/13 14/4/4
f 16/10/11 13/9/10 11/13/20 12/14/21
f 12/14/22 9/11/23 15/3/16 16/10/15
f 1/15/24 2/16/24 10/12/18 9/11/17
f 2/17/25 8/18/25 11/13/19 10/12/18
f 12/14/21 11/13/20 8/19/26 7/20/26
f 7/21/27 1/22/27 9/11/23 12/14/22
f 6/8/28 25/23/29 26/5/7 4/1/6
f 18/24/30 20/25/31 19/26/32 17/27/33
f 5/7/34 28/28/35 25/23/29 6/8/28
f 3/2/5 27/6/8 28/28/35 5/7/34
f 22/29/36 21/30/37 36/31/38 34/32/39
f 23/33/40 22/29/36 34/32/39 32/34/41
f 21/30/37 24/35/42 29/36/43 36/31/38
f 26/5/7 25/23/29 23/33/40 24/35/42
f 27/6/8 26/5/7 24/35/42 21/30/37
f 28/28/35 27/6/8 21/30/37 22/29/36
f 25/23/29 28/28/35 22/29/36 23/33/40
f 29/36/43 30/37/44 35/38/45 36/31/38
f 30/37/44 29/36/43 32/34/41 31/39/46
f 31/39/46 32/34/41 34/32/39 33/40/47
f 33/40/47 34/32/39 36/31/38 35/38/45
f 17/27/33 19/26/32 33/40/47 35/38/45
f 35/38/45 30/37/44 18/24/30 17/27/33
f 19/26/32 20/25/31 31/39/46 33/40/47
f 30/37/44 31/39/46 20/25/31 18/24/30
f 23/33/40 32/34/41 29/36/43 24/35/42
